HIERARCHY
ROOT Hips
{
 OFFSET 0.000000 0.000000 0.000000
 CHANNELS 6 Xposition Yposition Zposition Yrotation Xrotation Zrotation
 JOINT Chest
 {
  OFFSET 0.000000 9.581000 -0.001100
  CHANNELS 3 Yrotation Xrotation Zrotation
  JOINT Chest2
  {
   OFFSET 0.000000 9.561100 0.002200
   CHANNELS 3 Yrotation Xrotation Zrotation
   JOINT Chest3
   {
    OFFSET 0.000000 9.521100 0.000000
    CHANNELS 3 Yrotation Xrotation Zrotation
    JOINT Chest4
    {
     OFFSET 0.000000 9.511400 0.000000
     CHANNELS 3 Yrotation Xrotation Zrotation
     JOINT Neck
     {
      OFFSET 0.000000 14.375100 0.000000
      CHANNELS 3 Yrotation Xrotation Zrotation
      JOINT Head
      {
       OFFSET 0.000000 8.901200 0.004600
       CHANNELS 3 Yrotation Xrotation Zrotation
       End Site
       {
        OFFSET 0.000000 16.962200 0.002400
       }
      }
     }
     JOINT RightCollar
     {
      OFFSET -2.920100 9.518800 0.000000
      CHANNELS 3 Yrotation Xrotation Zrotation
      JOINT RightShoulder
      {
       OFFSET -13.664500 0.000000 0.000000
       CHANNELS 3 Yrotation Xrotation Zrotation
       JOINT RightElbow
       {
        OFFSET 0.000000 -29.999200 0.000000
        CHANNELS 3 Yrotation Xrotation Zrotation
        JOINT RightWrist
        {
         OFFSET 0.000000 -24.253600 0.000000
         CHANNELS 3 Yrotation Xrotation Zrotation
         End Site
         {
          OFFSET 0.000000 -17.918900 0.000000
         }
        }
       }
      }
     }
     JOINT LeftCollar
     {
      OFFSET 2.920100 9.518800 0.000000
      CHANNELS 3 Yrotation Xrotation Zrotation
      JOINT LeftShoulder
      {
       OFFSET 13.664500 0.000000 0.000000
       CHANNELS 3 Yrotation Xrotation Zrotation
       JOINT LeftElbow
       {
        OFFSET 0.000000 -29.999200 0.000000
        CHANNELS 3 Yrotation Xrotation Zrotation
        JOINT LeftWrist
        {
         OFFSET 0.000000 -24.253600 0.000000
         CHANNELS 3 Yrotation Xrotation Zrotation
         End Site
         {
          OFFSET 0.000000 -17.918900 0.000000
         }
        }
       }
      }
     }
    }
   }
  }
 }
 JOINT RightHip
 {
  OFFSET -7.797300 0.005300 0.000500
  CHANNELS 3 Yrotation Xrotation Zrotation
  JOINT RightKnee
  {
   OFFSET 0.000000 -40.663400 -0.000500
   CHANNELS 3 Yrotation Xrotation Zrotation
   JOINT RightAnkle
   {
    OFFSET 0.000000 -39.523700 -0.000900
    CHANNELS 3 Yrotation Xrotation Zrotation
    JOINT RightToe
    {
     OFFSET 0.000000 -6.418000 14.485300
     CHANNELS 3 Yrotation Xrotation Zrotation
     End Site
     {
      OFFSET 0.000000 -1.465200 6.326400
     }
    }
   }
  }
 }
 JOINT LeftHip
 {
  OFFSET 7.797300 0.005300 0.000500
  CHANNELS 3 Yrotation Xrotation Zrotation
  JOINT LeftKnee
  {
   OFFSET 0.000000 -40.663400 -0.000500
   CHANNELS 3 Yrotation Xrotation Zrotation
   JOINT LeftAnkle
   {
    OFFSET 0.000000 -39.523700 -0.000900
    CHANNELS 3 Yrotation Xrotation Zrotation
    JOINT LeftToe
    {
     OFFSET 0.000000 -6.418000 14.485300
     CHANNELS 3 Yrotation Xrotation Zrotation
     End Site
     {
      OFFSET 0.000000 -1.465200 6.326400
     }
    }
   }
  }
 }
}
MOTION
Frames: 5
Frame Time: 0.008333
0.000000 86.422400 0.000000 0.000000 -5.767877 0.000000 0.000000 11.653817 0.000000 0.000000 -5.885947 0.000000 0.000000 -0.000000 0.000000 0.000000 -0.000000 0.000000 0.000000 12.528835 0.000000 0.000000 0.711642 0.000000 0.000000 -0.000000 0.000000 0.000000 0.000000 -90.000000 0.000000 -2.309062 0.000000 0.000000 2.309062 0.000000 0.000000 -0.000000 0.000000 0.000000 -0.000000 90.000000 0.000000 -2.309062 0.000000 0.000000 2.309062 0.000000 0.000000 8.520406 0.000000 0.000000 1.905762 0.000000 -0.000000 -4.658285 0.000000 0.000000 -0.000000 0.000000 0.000000 8.520406 0.000000 0.000000 1.905762 0.000000 -0.000000 -4.658285 0.000000 0.000000 -0.000000 0.000000
-14.937282 126.907604 21.341229 -171.337865 -48.747543 -3.022144 -2.173213 26.111315 0.662974 -0.373067 4.328954 0.181883 -0.588336 6.900501 0.268228 -1.781669 21.448796 0.616456 7.049253 14.036001 -1.141280 7.933557 -10.794085 -2.892867 0.632094 1.905349 0.533974 6.519208 -2.689532 -9.598763 -70.674119 -53.164171 128.664582 -4.495408 9.149563 -20.374635 -9.657212 -1.305728 -0.593203 -9.444574 -12.967057 11.792089 55.143988 -55.527420 -104.567682 2.812946 -11.650553 8.124486 -4.433042 -23.550427 -2.262144 -4.858657 78.016325 -3.363808 10.822665 -11.790355 1.955744 0.000234 -0.001036 0.000104 7.349046 5.047048 3.052670 129.127178 65.492839 149.218840 4.731346 13.282602 4.750748 0.004343 -0.003846 0.001924
-14.937292 126.907437 21.342417 -171.346321 -48.748980 -3.011455 -2.170197 26.106211 0.663281 -0.371674 4.294348 0.199546 -0.591265 6.914398 0.258590 -1.782010 21.438934 0.622902 7.261854 13.929875 -1.264630 8.202774 -10.851247 -3.095600 0.629627 1.917199 0.560911 6.520895 -2.672309 -9.635446 -70.676573 -53.161708 128.669343 -4.489772 9.135300 -20.345888 -9.631487 -1.295274 -0.609715 -9.413413 -12.948963 11.789545 55.212233 -55.538761 -104.581953 2.765346 -11.613354 8.084351 -4.440976 -23.554798 -2.264894 -4.819593 78.021976 -3.334852 10.821010 -11.792106 1.954937 0.000637 -0.002345 0.000282 7.342640 5.065284 3.033237 129.093443 65.492486 149.171441 4.749562 13.271424 4.760565 0.000308 -0.000168 0.000136
-14.937135 126.907797 21.343446 -171.351017 -48.755969 -3.004662 -2.170988 26.081959 0.678814 -0.365290 4.279565 0.200961 -0.598726 6.931480 0.249945 -1.763608 21.368793 0.661048 7.445979 13.888061 -1.404890 8.458609 -10.904851 -3.291263 0.603316 1.994057 0.566022 6.545226 -2.697517 -9.659337 -70.697537 -53.146546 128.685050 -4.513507 9.180760 -20.384076 -9.622226 -1.222896 -0.657807 -9.416623 -12.933624 11.779103 55.275470 -55.547184 -104.571535 2.743728 -11.576264 8.026067 -4.442477 -23.551673 -2.272014 -4.772138 78.025858 -3.288747 10.821295 -11.790846 1.950454 0.001252 -0.002781 0.000555 7.344417 5.075909 3.027571 129.093907 65.493481 149.171402 4.757192 13.263946 4.766491 0.005513 -0.000645 0.002443
-14.936904 126.908470 21.344474 -171.355803 -48.767321 -2.998437 -2.164311 26.057269 0.697115 -0.360521 4.267689 0.202211 -0.603030 6.918115 0.254707 -1.756028 21.347707 0.674887 7.627122 13.827694 -1.535621 8.700080 -10.959470 -3.480168 0.570366 2.056404 0.585100 6.583434 -2.765307 -9.644161 -70.638436 -53.158141 128.596276 -4.506224 9.205556 -20.313508 -9.631113 -1.155914 -0.696229 -9.354746 -12.918631 11.780861 55.322728 -55.545533 -104.609523 2.709225 -11.542047 7.972503 -4.442376 -23.543289 -2.277472 -4.817964 78.026423 -3.335898 10.833542 -11.789703 1.951840 0.000516 -0.002995 0.000228 7.347287 5.094724 3.020079 129.077209 65.498513 149.152496 4.766742 13.260408 4.777178 0.005781 -0.000973 0.002561
